<?xml version="1.0" encoding="UTF-8" standalone="no"?>
<svg
   xmlns:dc="http://purl.org/dc/elements/1.1/"
   xmlns:cc="http://creativecommons.org/ns#"
   xmlns:rdf="http://www.w3.org/1999/02/22-rdf-syntax-ns#"
   xmlns:svg="http://www.w3.org/2000/svg"
   xmlns="http://www.w3.org/2000/svg"
   width="141.11111mm"
   height="141.12758mm"
   viewBox="0 0 499.99999 397.17495"
   id="svg2"
   version="1.1">
  <defs
     id="defs4" />
  <metadata
     id="metadata7">
    <rdf:RDF>
      <cc:Work
         rdf:about="">
        <dc:format>image/svg+xml</dc:format>
        <dc:type
           rdf:resource="http://purl.org/dc/dcmitype/StillImage" />
        <dc:title></dc:title>
        <cc:license
           rdf:resource="http://creativecommons.org/publicdomain/zero/1.0/" />
      </cc:Work>
      <cc:License
         rdf:about="http://creativecommons.org/publicdomain/zero/1.0/">
        <cc:permits
           rdf:resource="http://creativecommons.org/ns#Reproduction" />
        <cc:permits
           rdf:resource="http://creativecommons.org/ns#Distribution" />
        <cc:permits
           rdf:resource="http://creativecommons.org/ns#DerivativeWorks" />
      </cc:License>
    </rdf:RDF>
  </metadata>
  <path
     style="opacity:1;fill:#f7931a"
     d="M 492.51699,259.07263 C 459.12279,393.01656 323.45991,474.53307 189.50032,441.13104 55.59548,407.73686 -25.921026,272.06621 7.4887624,138.13004 40.867356,4.170444 176.53024,-77.353829 310.45074,-43.959702 444.4025,-10.56551 525.91118,125.12087 492.51699,259.07263 Z"
     id="path4212" />
  <path
     style="fill:#ffffff"
     d="m 360.19823,162.96864 c 4.97711,-33.26921 -20.35376,-51.15389 -54.99022,-63.084864 L 316.44354,54.816462 289.01095,47.979819 278.0723,91.859482 c -7.21171,-1.79707 -14.61875,-3.49259 -21.97892,-5.172449 l 11.01677,-44.168775 -27.41693,-6.836643 -11.24343,45.051713 c -5.96936,-1.359549 -11.82936,-2.703436 -17.51744,-4.117676 l 0.0329,-0.140837 -37.83211,-9.446297 -7.29765,29.300011 c 0,0 20.35369,4.664511 19.92399,4.953631 11.11056,2.77372 13.11856,10.12606 12.78259,15.95487 l -12.79826,51.34137 c 0.76572,0.19547 1.75804,0.47648 2.85191,0.91414 -0.9142,-0.2264 -1.89085,-0.47648 -2.89877,-0.7188 l -17.93943,71.92174 c -1.35949,3.37531 -4.80515,8.43838 -12.57166,6.51626 0.27379,0.39883 -19.9396,-4.97705 -19.9396,-4.97705 l -13.61865,31.4018 35.69913,8.89932 c 6.64131,1.66426 13.14982,3.40664 19.55677,5.04747 l -11.35274,45.58296 27.40132,6.83664 11.24336,-45.09851 c 7.48523,2.03142 14.75162,3.90662 21.86172,5.67249 l -11.20428,44.88758 27.43259,6.83664 11.35275,-45.49699 c 46.77843,8.85246 81.95409,5.28176 96.76034,-37.02742 11.93096,-34.06614 -0.59363,-53.71663 -25.20583,-66.53054 17.92376,-4.13321 31.42522,-15.92353 35.02718,-40.27769 z m -62.67854,87.89213 c -8.47748,34.06613 -65.83516,15.65015 -84.43087,11.03243 l 15.0641,-60.38924 c 18.5957,4.64114 78.22707,13.82965 69.36677,49.35681 z m 8.48523,-88.38441 c -7.73517,30.9877 -55.47466,15.24383 -70.96067,11.38408 L 248.702,119.08897 c 15.48602,3.85976 65.35847,11.06363 57.30292,43.38739 z"
     id="path4214" />
</svg>
