<?xml version="1.0" encoding="UTF-8" standalone="no"?>
<svg
   xmlns:dc="http://purl.org/dc/elements/1.1/"
   xmlns:cc="http://creativecommons.org/ns#"
   xmlns:rdf="http://www.w3.org/1999/02/22-rdf-syntax-ns#"
   xmlns:svg="http://www.w3.org/2000/svg"
   xmlns="http://www.w3.org/2000/svg"
   id="svg3948"
   version="1.1"
   viewBox="0 0 70.795952 79.397827"
   height="79.397827mm"
   width="70.795952mm">
  <defs
     id="defs3942" />
  <metadata
     id="metadata3945">
    <rdf:RDF>
      <cc:Work
         rdf:about="">
        <dc:format>image/svg+xml</dc:format>
        <dc:type
           rdf:resource="http://purl.org/dc/dcmitype/StillImage" />
        <dc:title></dc:title>
      </cc:Work>
    </rdf:RDF>
  </metadata>
  <g
     transform="translate(-82.144118,-83.950854)"
     id="layer1">
    <path
       style="fill:#ffffff;stroke:none;stroke-width:0.1889881"
       d=""
       id="path3966" />
    <g
       transform="translate(-6.9925595,-7.5595238)"
       id="g4248">
      <g
         id="g4225">
        <g
           transform="translate(0.26726953,3.7417734)"
           id="g3999">
          <path
             d="m 113.85689,87.768604 c -0.1119,5.29e-4 -0.18235,0.01333 -0.19999,0.03979 -0.10584,0.246948 0.0705,2.116804 0.67024,6.844031 l 0.28216,2.046382 h -1.02268 c -1.09361,0 -3.31608,1.164135 -3.31608,1.72858 0,0.211667 -0.56479,0.105491 -1.23506,-0.176735 -0.67028,-0.246941 -2.15154,-0.493511 -3.28042,-0.493511 -1.83445,0 -2.15236,0.105833 -3.06958,1.058333 -0.81139,0.846667 -1.02268,1.375556 -1.02268,2.716116 -0.0353,1.51694 -0.1766,1.79951 -1.799374,3.35173 -0.9525,0.91723 -2.116702,1.69292 -2.504757,1.69292 -0.423334,0 -1.375559,0.67042 -2.186947,1.55236 -1.093612,1.19945 -1.446629,1.90497 -1.658296,3.31608 -0.141111,0.98778 -0.140974,2.08156 -0.03514,2.46962 0.176385,0.45861 -0.03562,0.77583 -0.705902,1.12861 -0.846666,0.45861 -2.963126,2.82219 -2.963126,3.31608 0,0.10583 0.38785,0.21187 0.84646,0.21187 1.164166,0 1.305278,0.70573 0.529166,2.46962 -0.352776,0.81139 -0.91705,2.61035 -1.23455,4.02146 -0.282221,1.37583 -0.705726,3.24583 -0.882116,4.16305 -0.423334,1.94028 -0.140732,6.94965 0.564822,9.80715 0.282223,1.05834 0.564412,3.6689 0.670245,5.82084 -0.12242,3.66889 1.672439,11.69975 3.356195,13.65498 6.69455,8.14981 14.79618,9.83362 26.94657,7.96999 2.37526,-0.36432 4.12035,-3.53844 6.71668,-4.14226 2.20891,-0.51372 4.62585,1.96714 6.89134,1.52753 2.08528,-0.40465 3.32179,-0.94108 5.29171,-2.57698 0.77436,-0.64307 2.60362,-0.0392 3.56015,-0.3754 1.9864,-0.69824 2.05916,-2.6043 3.60303,-3.416 2.12824,-1.11894 4.29481,-0.49453 5.53033,-1.44157 2.32532,-1.23285 0.92323,-2.9529 1.60458,-3.6604 1.43116,-1.48607 4.74464,-1.22312 5.7464,-2.96833 0.89051,-1.55141 -3.69607,-3.21215 -3.15239,-4.56254 4.162,-2.22396 3.22101,-4.29198 1.27569,-5.90987 -2.25921,-1.87894 -0.82884,-3.18041 -0.13095,-4.33 2.54,-3.73944 2.32823,-7.86681 -0.6351,-12.20597 -0.3175,-0.49389 -2.29302,-3.42178 -4.37441,-6.52622 -4.48028,-6.6675 -7.23212,-10.58364 -8.29046,-11.95948 -0.45861,-0.52916 -0.81131,-1.41077 -0.81131,-1.93993 0,-0.49389 -0.35247,-2.010802 -0.74053,-3.31608 -0.91722,-2.892774 -2.46975,-4.551211 -5.08031,-5.327322 -7.97278,-2.363611 -13.8991,-3.809655 -18.87327,-4.585769 -0.67028,-0.105834 -2.0818,-0.423298 -3.06958,-0.670243 -0.76729,-0.211667 -1.47505,-0.324114 -1.81074,-0.32246 z m -3.30161,13.423476 c 1.21874,-0.007 1.62915,0.38385 2.07894,1.46864 0.81139,1.97556 2.11626,3.13979 3.80959,3.42201 1.05833,0.14111 1.62295,0.45824 1.94045,1.02268 0.635,1.16417 1.97549,1.76385 3.98632,1.72858 l 1.76372,-0.0351 1.341,2.1518 c 1.55222,2.3989 2.43396,4.93896 2.43396,7.12619 v 1.48156 l -4.65656,-1.9048 -4.62143,-1.86965 -1.02319,-1.86965 c -1.30528,-2.39889 -2.50469,-3.59827 -4.37441,-4.51549 -2.75167,-1.27 -6.38504,-0.59972 -8.39587,1.5875 -0.84667,0.91722 -0.91757,0.91722 -2.82257,0.52917 -1.94027,-0.38806 -1.97559,-0.42372 -1.97559,-1.62316 0,-0.70556 -0.176422,-1.55226 -0.388088,-1.97559 -0.3175,-0.59972 -0.176425,-0.91708 1.199408,-2.1518 2.29306,-2.15195 6.06785,-4.19775 8.18452,-4.4447 0.61736,-0.0794 1.11355,-0.12595 1.5198,-0.12815 z m -11.005014,11.77396 c 0.171979,-0.0132 0.436837,0.084 1.054194,0.27801 0.56445,0.17639 1.44629,0.42334 2.01074,0.52917 0.81138,0.17639 0.95239,0.42313 0.95239,1.37563 0,3.98639 2.89292,6.94996 6.84403,6.94996 1.34055,0 5.04448,-1.30538 6.2792,-2.2226 l 1.0232,-0.77618 2.71611,0.98753 c 1.48167,0.56445 3.88055,1.44656 5.29167,1.94046 2.8575,1.02305 2.82222,0.98798 2.11666,4.4452 -0.28222,1.51695 -0.59944,2.11636 -1.12861,2.32803 -0.635,0.24694 -0.56431,0.31753 0.49403,0.38809 0.67028,0 1.51701,0.0353 1.83451,0 0.98778,-0.10584 4.90337,0.67031 7.33754,1.44642 1.27,0.38806 4.55059,1.72892 7.33753,2.96364 2.75167,1.23473 5.11556,2.25774 5.22139,2.25774 0.10584,0 1.83417,0.77608 3.77445,1.72858 3.98639,1.905 5.57409,3.24532 4.97437,4.16254 -0.52916,0.81139 -1.86982,1.12906 -5.92677,1.41128 l -3.52743,0.21136 1.5875,0.7059 c 2.69013,1.26178 12.03375,5.14398 5.29166,6.2792 -2.04611,0.3175 -4.0217,0.17629 -8.85475,-0.6351 -1.72861,-0.28222 -0.98795,0.35316 1.23455,1.09399 2.29306,0.74083 4.30389,2.46931 3.70417,3.21014 -1.02306,1.23472 -5.00928,1.65806 -9.70122,1.05833 l -1.76424,-0.24701 1.6583,1.05834 c 1.79917,1.16416 2.68111,2.39919 2.11667,2.96364 -0.70556,0.70555 -3.77503,0.35274 -7.19698,-0.91726 -1.905,-0.67028 -3.45715,-1.09364 -3.45715,-0.91726 0,0.17639 0.2118,0.45834 0.49402,0.59945 0.74084,0.42334 2.32854,2.9282 2.32854,3.66903 0,1.44638 -3.88086,0.38788 -7.19698,-1.94045 -1.16416,-0.77611 -3.0335,-2.11674 -4.19767,-2.89285 -3.77472,-2.61056 -7.30278,-7.69011 -7.86722,-11.359 -0.24694,-1.51694 -0.28222,-1.58798 -0.52917,-0.67076 -0.14111,0.52917 -0.10573,1.51705 0.10594,2.22261 0.17639,0.70555 0.24691,1.48201 0.14108,1.76423 -0.10584,0.28222 0.776,1.76344 2.01073,3.42149 1.19944,1.5875 2.57517,3.49264 3.06906,4.1982 0.77611,1.16417 1.48167,1.65812 2.64583,1.83451 0.70556,0.10584 1.94045,0.95243 1.94045,1.34049 0,0.45861 -2.15211,2.46969 -4.05711,3.77496 -1.12889,0.77612 -1.97556,1.05816 -4.23334,1.23455 -1.55222,0.14111 -2.92795,0.45858 -3.06906,0.67025 -0.45861,0.70555 -4.1274,0.38833 -6.77323,-0.59945 -2.82222,-1.05833 -3.28077,-1.12906 -3.45715,-0.35295 -0.0706,0.45861 -0.52934,0.17639 -1.94046,-1.05833 -1.02305,-0.91722 -2.18698,-2.18743 -2.575033,-2.85771 -0.811386,-1.30528 -1.411281,-1.34052 -1.411281,-0.14108 0,0.38806 -0.141284,0.59986 -0.35295,0.49403 -0.529167,-0.3175 -2.822085,-4.62122 -3.210141,-5.99705 -0.3175,-1.12889 -1.023193,-1.72878 -1.023193,-0.88212 0,0.17639 -0.140906,0.35295 -0.317292,0.35295 -0.176392,0 -0.670144,-1.30521 -1.093477,-2.92798 -0.635,-2.29306 -0.846942,-4.16302 -0.988053,-9.06663 -0.105833,-4.33917 -0.317602,-6.27952 -0.635102,-6.59702 -1.023056,-1.02305 0.282671,-10.58323 1.87017,-13.65239 l 0.529167,-1.0232 0.599447,0.77618 c 0.9525,1.23472 2.857292,1.34076 4.550625,0.21187 2.257783,-1.51694 2.681493,-4.05697 1.093993,-6.73809 -0.493889,-0.81138 -0.564516,-1.16406 -0.247016,-1.48156 0.246945,-0.24694 0.326182,-0.37072 0.498162,-0.38395 z m -2.689758,1.67845 c 0.510691,0.0124 0.954634,0.11868 1.274342,0.32814 1.128886,0.70556 1.481699,5.36233 0.388088,4.86844 -2.998612,-1.30528 -5.115208,-2.04625 -6.102986,-2.08153 -1.552223,-0.0705 -1.376005,-0.49406 0.705383,-1.94045 1.164167,-0.77611 2.611649,-1.20199 3.735173,-1.1746 z m 53.155932,0.11885 c 0.21541,-0.0318 0.59614,0.38995 1.21129,1.30276 1.4464,2.04612 1.51692,2.6458 0.67025,5.43275 -0.88195,2.89277 -1.83452,4.83319 -4.48035,8.96069 l -1.834,2.89285 -1.41128,-0.7059 c -0.77611,-0.35278 -1.5877,-0.67024 -1.79937,-0.67024 -0.52917,0 -0.45831,-0.24688 0.84698,-2.39882 3.56305,-5.99723 4.40968,-7.54917 5.43274,-10.12445 0.635,-1.55222 1.12861,-3.24566 1.12861,-3.81011 0,-0.55562 0.0676,-0.85481 0.23513,-0.87953 z"
             style="fill:#000000;stroke:none;stroke-width:0.03527778"
             id="path3840" />
        </g>
      </g>
      <g
         id="g4221">
        <g
           transform="matrix(0.06894083,0,0,0.06894083,131.28809,111.30431)"
           id="mJMcXG_1_">
          <g
             id="g6">
            <g
               id="g8">
              <path
                 style="fill:#3d3e3c"
                 id="path10"
                 d="M 113.21468,227.33853 C 51.002266,227.3372 0.8313326,177.28224 0.8504726,115.23409 0.8695101,53.518181 51.278236,3.6587067 113.62827,3.6851184 175.60735,3.7113731 225.69014,53.931857 225.63774,116.00255 c -0.0518,61.40703 -50.4696,111.33728 -112.42306,111.33598 z"
                 class="st0" />
              <path
                 style="fill:#ffffff"
                 id="path12"
                 d="M 210.1853,98.138855 C 207.05377,79.695557 199.06104,63.371155 186.21851,49.762207 160.9668,23.003479 129.89313,12.898865 93.805847,19.500427 70.3797,23.785889 51.215698,35.894226 36.229675,54.415161 26.112366,66.918884 19.526367,81.122986 16.528259,96.956238 v 0 c -2.392456,11.945132 -2.487243,23.938472 -0.260742,35.885432 4.472412,23.99793 16.324707,43.67341 35.257874,59.06214 5.020141,4.08032 10.385253,7.66693 16.233215,10.48553 0.191284,0.12946 0.37091,0.28205 0.5755,0.38507 20.452942,10.30048 41.985594,13.24836 64.381164,8.79993 23.31452,-4.63092 42.62982,-16.30646 57.44135,-34.89789 18.40045,-23.09637 24.9635,-49.47381 20.02868,-78.537595 z"
                 class="st1" />
              <path
                 style="fill:#3e3f3d"
                 id="path14"
                 d="m 117.65147,47.036716 c 7.90274,0 15.80548,0 23.81704,0 -0.97297,3.797932 -1.90372,7.431183 -2.83448,11.064435 0.25042,0.568119 0.0332,1.113735 -0.10371,1.652137 -1.564,6.149498 -3.26207,12.264038 -4.80603,18.418679 -0.14279,0.569206 -0.45882,1.01931 -0.76538,1.488685 -0.76309,2.797806 -1.52616,5.595612 -2.36681,8.677819 5.24257,-1.969872 10.22843,-3.843293 15.38953,-5.782555 -1.07967,4.235527 -2.12027,8.317802 -3.16087,12.400085 0.19342,0.57312 0.0234,1.123085 -0.12204,1.668518 -1.41099,5.290191 -2.80098,10.585961 -4.17176,15.886601 -0.28167,1.08919 -0.94661,1.64785 -1.95521,2.01738 -3.9442,1.44509 -7.89061,2.88455 -11.82975,4.34368 -1.20295,0.44559 -2.28291,0.90495 -2.50633,2.36054 -0.0575,0.37466 -0.46892,0.58709 -0.58505,0.95671 -1.13268,4.22078 -2.26264,8.44228 -3.40093,12.66154 -0.17276,0.64036 -0.19528,1.01077 0.7078,1.0016 5.9826,-0.0607 11.9658,-0.0644 17.94881,-0.0866 1.28634,-0.31179 2.58712,-0.44579 3.91465,-0.44405 10.52318,0.0138 21.04639,0.005 31.5696,0.009 2.91736,0.001 3.07574,0.21028 2.29114,2.976 -0.30706,1.0824 -0.45447,2.22937 -1.21373,3.13796 -1.97882,7.05123 -3.91295,14.11431 -5.61748,21.23811 0.19386,0.41322 0.12593,0.83647 0.009,1.2444 -0.53338,1.85698 -0.96315,3.74068 -1.4599,5.60712 -0.31999,1.2023 -1.00477,1.83 -2.30772,1.82917 -5.98293,-0.004 -11.96587,0.009 -17.94879,-0.0132 -0.46816,-0.002 -0.94976,-0.0122 -1.32744,-0.36754 -10.05324,-0.012 -20.10648,-0.0308 -30.15971,-0.0335 -7.1269,-0.002 -14.2538,0.0181 -21.380704,0.0283 -1.997482,0.44011 -4.024689,0.40198 -6.052872,0.39957 -8.171531,-0.01 -16.343101,-0.004 -24.51466,-0.004 -0.519569,-3e-5 -1.039512,0.0116 -1.558601,-0.0104 -1.736637,-0.0737 -2.024132,-0.38414 -1.572784,-2.08842 0.515392,-1.94617 0.669925,-4.02123 1.886032,-5.73993 1.820602,-6.87972 3.641208,-13.7594 5.461811,-20.6391 0.285675,-0.41112 -0.04475,-0.81786 -0.01051,-1.2361 0.108978,-1.33102 0.08126,-1.34843 -1.242416,-0.86383 -2.970627,1.08755 -5.922604,2.22558 -8.898766,3.29846 -0.44421,0.16013 -0.876606,0.36524 -1.349216,0.41979 -0.830178,0.0958 -1.345078,-0.21164 -1.101288,-1.11713 1.509575,-5.60683 2.88311,-11.25081 4.571617,-16.80884 0.05484,-0.18052 0.207355,-0.31367 0.312588,-0.47008 1.261978,-3.70259 2.100032,-7.52364 3.1175,-11.29376 0.272972,-1.01147 0.718506,-1.56157 1.726273,-1.91022 3.693496,-1.27777 7.342796,-2.68289 11.030944,-3.9768 0.764794,-0.26831 1.122879,-0.65296 1.308251,-1.43555 0.586113,-2.47447 1.258102,-4.9286 1.896873,-7.39059 -0.152138,-1.052883 0.174187,-2.038983 0.439347,-3.029248 1.531234,-5.718712 3.048576,-11.441116 4.573951,-17.161384 0.132225,-0.495857 0.20784,-1.0224 0.654999,-1.369187 1.397842,-5.128357 2.802551,-10.254852 4.189896,-15.386047 0.503677,-1.862904 0.965889,-3.737019 1.447021,-5.606018 -0.14006,-0.904038 0.01418,-1.775635 0.274498,-2.639744 0.571579,-1.897293 1.009422,-3.830753 1.547318,-5.737743 0.694015,-2.460488 0.786506,-2.558926 3.415916,-2.560654 6.556582,-0.0043 13.113152,-0.0014 19.669732,-0.0013 0.56602,1.1e-5 1.13257,-0.01508 1.6979,0.01075 0.51328,0.02345 1.04933,-0.01145 1.45513,0.406375 z"
                 class="st2" />
              <path
                 style="fill:#b6b7b9"
                 id="path16"
                 d="m 144.8154,170.98329 c 6.44366,-0.0126 12.8875,-0.0522 19.33081,-0.0116 1.08963,0.007 1.5404,-0.28897 1.7933,-1.38269 0.53753,-2.32486 1.2627,-4.60631 1.91097,-6.90561 4.34822,-1.62651 8.69644,-3.25296 13.04466,-4.87943 0.0708,0.12044 0.14153,0.24085 0.21227,0.36127 -8.98044,13.92821 -21.06494,24.29218 -36.36226,30.74478 -17.96062,7.57605 -36.35258,8.36536 -55.07947,2.58509 2.842171,-1.05826 5.681251,-2.12494 8.527038,-3.1734 15.255322,-5.62037 30.512602,-11.23536 45.766392,-16.85991 0.30304,-0.11174 0.57162,-0.31688 0.85629,-0.47846 z"
                 class="st3" />
              <path
                 style="fill:#b6b7b9"
                 id="path18"
                 d="m 117.65147,47.036716 c -7.91018,0.01206 -15.82056,0.05497 -23.730335,0.0041 -1.235855,-0.0079 -1.666649,0.375507 -1.941338,1.552452 -0.702583,3.010445 -1.580825,5.979896 -2.388817,8.965748 -0.282486,-0.414437 -0.581993,-0.117844 -0.867271,-0.01257 C 74.574051,62.767908 60.425159,67.991445 46.277401,73.218038 45.9678,73.33241 45.673618,73.494062 45.151459,73.288298 54.838337,58.091109 68.02121,47.21395 84.813736,40.894305 102.08664,34.393874 119.62431,34.021266 137.29776,39.6216 c -5.21014,1.91867 -10.42677,3.82008 -15.62605,5.767765 -1.35445,0.507389 -2.79497,0.819973 -4.02024,1.647365 z"
                 class="st3" />
              <path
                 style="fill:#b6b7b9"
                 id="path20"
                 d="m 121.65062,122.18943 c 0.10352,-2.14909 1.24677,-3.19102 3.31551,-3.84225 3.94129,-1.24073 7.77012,-2.83596 11.66232,-4.23771 0.82696,-0.29783 1.26794,-0.69743 1.50406,-1.61127 1.51414,-5.85993 3.11552,-11.69731 4.68823,-17.542145 1.15778,-0.0648 2.15701,-0.646103 3.20775,-1.031357 12.56174,-4.605667 25.11728,-9.228531 37.65509,-13.898819 0.95955,-0.357407 1.35914,-0.2892 1.81647,0.668403 2.26187,4.736046 4.00904,9.653557 5.46556,14.687775 0.3108,1.074272 -0.29743,1.296311 -1.04731,1.572319 -6.41062,2.359528 -12.81634,4.732404 -19.22569,7.095454 -16.17795,5.9646 -32.35708,11.926 -48.53478,17.89131 -0.17571,0.0648 -0.33843,0.16476 -0.50721,0.24829 z"
                 class="st3" />
              <path
                 style="fill:#b6b7b9"
                 id="path22"
                 d="m 83.954063,78.551071 c -1.185547,4.605538 -2.358551,9.214363 -3.561523,13.815346 -0.676697,2.588142 -1.40287,5.163353 -2.106766,7.744423 -0.480751,-0.39621 -0.892853,7.4e-4 -1.295868,0.14915 -13.756637,5.06564 -27.51202,10.13473 -41.258194,15.2287 -2.953811,1.0946 -2.979343,1.13653 -2.801059,-1.78901 0.335098,-5.49884 0.795959,-10.98191 2.1576,-16.351398 0.175766,-0.693115 0.432541,-1.033852 1.083107,-1.272858 13.450844,-4.941421 26.893105,-9.906227 40.340565,-14.856888 2.472893,-0.910392 4.961036,-1.77938 7.442138,-2.667465 z"
                 class="st3" />
              <path
                 style="fill:#b6b7b9"
                 id="path24"
                 d="m 173.46796,141.44519 c 0.34074,-1.36552 0.61874,-2.75087 1.04145,-4.09053 0.35962,-1.13959 0.30887,-1.57794 -1.13357,-1.56839 -10.27318,0.068 -20.54703,0.0391 -30.82066,0.0337 -1.88297,-9.8e-4 -3.76589,-0.0351 -5.64885,-0.054 4.667,-1.756 9.32611,-3.53348 14.00257,-5.26395 13.73836,-5.08373 27.48447,-10.14658 41.22504,-15.2244 1.44658,-0.5346 1.4852,-0.55388 1.43102,0.99861 -0.20212,5.79091 -0.78369,11.53432 -2.04393,17.20644 -0.27428,1.23448 -1.00473,1.64708 -2.02234,2.01991 -5.351,1.96059 -10.68852,3.958 -16.03073,5.9426 z"
                 class="st3" />
              <path
                 style="fill:#b6b7b9"
                 id="path26"
                 d="m 132.95891,79.660652 c 1.89171,-7.1865 3.78341,-14.372993 5.67514,-21.559498 2.82591,-0.592357 5.41606,-1.869571 8.11856,-2.81829 3.99951,-1.404042 7.97006,-2.892781 11.93045,-4.404389 0.86981,-0.332 1.44974,-0.163532 2.17009,0.374695 4.69864,3.510674 9.04553,7.395298 12.90169,11.822411 0.98192,1.127315 0.98494,1.115947 -0.51313,1.670093 -13.4291,4.967575 -26.85556,9.942329 -40.2828,14.914978 z"
                 class="st3" />
              <path
                 style="fill:#b6b7b9"
                 id="path28"
                 d="m 59.205925,126.11781 c -0.845329,4.18724 -2.173233,8.24988 -3.202602,12.38982 -0.396382,1.59416 -0.871373,3.16873 -1.273945,4.76147 -0.07397,0.29264 -0.485028,0.59063 -0.178452,0.88326 0.29924,0.28566 0.701565,0.12054 1.062058,-0.0147 3.033687,-1.13785 6.068592,-2.27248 9.105148,-3.40263 0.949173,-0.35326 1.904518,-0.68995 3.124458,-1.13086 -0.354423,1.26979 -0.636543,2.28056 -0.91867,3.29133 -0.164872,-0.76194 -0.66848,-0.33235 -0.976502,-0.21914 -7.387867,2.71515 -14.771984,5.44067 -22.14679,8.1911 -2.157894,0.80481 -2.16278,0.85135 -3.16455,-1.25151 -2.093209,-4.39399 -3.777466,-8.93726 -5.019364,-13.64885 -0.224697,-0.85247 -0.155597,-1.27335 0.730606,-1.59648 7.173355,-2.6155 14.331826,-5.27176 21.498608,-7.90534 0.436901,-0.16054 0.905918,-0.23368 1.359997,-0.34749 z"
                 class="st3" />
              <path
                 style="fill:#b6b7b9"
                 id="path30"
                 d="m 61.462101,163.53465 c -0.529636,2.04619 -1.006828,4.10802 -1.61005,6.13231 -0.322891,1.08353 -0.06788,1.30757 1.037822,1.30309 10.560696,-0.043 21.121632,-0.0283 31.682499,-0.0282 0.234208,2e-5 0.468407,0.0236 0.702614,0.0362 -8.478332,3.12919 -16.957855,6.25516 -25.432518,9.39425 -0.614227,0.22753 -1.129974,0.28681 -1.715942,-0.1361 -5.221936,-3.76885 -9.912411,-8.10505 -14.242111,-13.19416 3.275581,-1.19955 6.426639,-2.35347 9.577686,-3.5074 z"
                 class="st3" />
              <path
                 style="fill:#ffffff"
                 id="path32"
                 d="m 69.445198,117.89404 c 3.843971,-1.3945 7.679169,-2.81405 11.539154,-4.16269 0.789963,-0.27601 0.753204,-0.91615 0.896103,-1.45285 3.161392,-11.87243 6.301911,-23.750416 9.438736,-35.629376 1.681626,-6.368179 3.348953,-12.740146 5.022728,-19.110409 -0.116005,-1.249259 0.415802,-2.360851 0.7566,-3.51091 0.202575,-0.683609 0.774223,-0.734851 1.369422,-0.734439 1.416497,9.68e-4 2.832989,-2.9e-4 4.249489,-3.51e-4 9.30168,-4.09e-4 18.60337,-2.26e-4 27.90505,-1.68e-4 0.37773,4e-6 0.75569,-0.0084 1.13315,0.0031 1.3273,0.04037 1.50649,0.216827 1.15233,1.529003 -0.53951,1.998855 -1.06929,4.000515 -1.59277,6.003284 -3.14249,12.022629 -6.38506,24.018982 -9.4646,36.058098 -0.10152,0.396919 -0.43647,0.837097 -0.0888,1.202225 0.42967,0.451217 0.8752,-0.0022 1.2851,-0.152031 3.89699,-1.424263 7.77448,-2.900635 11.64895,-4.385056 0.43638,-0.167198 0.87094,-0.378143 1.36415,-0.31559 0.47299,0.196625 0.23474,0.540627 0.15817,0.832528 -1.20616,4.598152 -2.4346,9.190562 -3.61259,13.795882 -0.19426,0.75949 -0.67354,1.02758 -1.31849,1.26244 -4.42052,1.60987 -8.82558,3.26267 -13.25611,4.84427 -0.84941,0.30323 -1.26323,0.76475 -1.48922,1.62875 -2.22727,8.51505 -4.47271,17.02553 -6.77098,25.52161 -0.31816,1.17616 0.0471,1.29294 1.08804,1.29133 17.93476,-0.0277 35.86959,-0.02 53.8044,-0.0198 1.6639,1e-5 1.65661,-0.001 1.22112,1.66614 -1.42656,5.46162 -2.84734,10.92475 -4.27034,16.38729 0.10141,1.26255 -0.55257,2.35753 -0.7957,3.54436 -0.0961,0.46895 -0.48254,0.66763 -0.95671,0.68631 -0.47205,0.0185 -0.94409,0.0142 -1.41615,0.0142 -29.41359,5.6e-4 -58.827199,5.5e-4 -88.240788,4.4e-4 -0.09444,0 -0.188858,1.5e-4 -0.28328,-8e-5 -2.105682,-0.005 -2.135055,-0.0129 -1.614189,-2.01504 2.680794,-10.30437 5.414703,-20.59479 8.145844,-30.88593 0.174858,-0.6589 0.716735,-1.48164 0.153091,-1.97917 -0.473755,-0.41821 -1.219261,0.17803 -1.818329,0.40054 -3.005425,1.11628 -6.001236,2.25863 -9.011558,3.36141 -0.504479,0.18481 -1.065941,0.68111 -1.588265,0.26018 -0.576645,-0.46476 -0.01938,-1.04082 0.101746,-1.54425 1.046341,-4.34888 2.257217,-8.65467 3.411888,-12.97532 0.263122,-0.98457 0.707809,-1.5025 1.743568,-1.41992 z"
                 class="st1" />
              <path
                 style="fill:#3a3c3d"
                 id="path34"
                 d="m 69.445198,117.89404 c -1.010338,0.27951 -1.431572,0.97216 -1.686516,1.97881 -1.166481,4.60599 -2.416687,9.19076 -3.715896,14.08076 4.522674,-1.68008 8.855263,-3.28958 13.398933,-4.97747 -3.128441,11.8524 -6.222763,23.57553 -9.3526,35.43316 0.664093,0 1.218933,0 1.773773,0 29.666115,0 59.332238,-0.009 88.998288,0.0327 1.25587,0.002 1.90475,-0.26299 2.08317,-1.55813 0.114,-0.82757 0.43918,-1.62603 0.66966,-2.43756 0.60054,1.57904 -0.58921,2.85373 -0.75732,4.30442 -0.0112,0.0963 -0.39896,0.19085 -0.61867,0.21182 -0.37443,0.0357 -0.7545,0.0137 -1.13222,0.0137 -29.93466,1.8e-4 -59.869319,2.1e-4 -89.803996,4e-5 -1.901604,-1e-5 -1.863922,0.009 -1.39534,-1.765 2.038101,-7.71675 4.045013,-15.44171 6.079055,-23.15954 0.766053,-2.90665 1.568215,-5.80388 2.371743,-8.70047 0.11454,-0.41291 0.365562,-0.90232 0.06213,-1.20034 -0.312088,-0.30653 -0.778229,0.0177 -1.159439,0.16114 -3.433846,1.29182 -6.86464,2.59181 -10.302666,3.87237 -0.417694,0.15558 -0.911163,0.56516 -1.298202,0.22837 -0.424225,-0.36915 0.0078,-0.87842 0.121765,-1.31397 1.129005,-4.31412 2.26416,-8.62663 3.406311,-12.93729 0.144325,-0.5447 0.319831,-1.0831 0.514495,-1.61205 0.322594,-0.87659 0.88823,-1.16646 1.743546,-0.65542 z"
                 class="st4" />
              <path
                 style="fill:#3b3d3e"
                 id="path36"
                 d="m 136.06003,93.235832 c -4.94971,1.89811 -9.89943,3.796211 -15.07022,5.779091 1.22598,-4.664505 2.38927,-9.110695 3.5635,-13.553986 2.68282,-10.151847 5.35297,-20.307151 8.08071,-30.446937 0.32622,-1.212608 0.0878,-1.433243 -1.14205,-1.426899 -10.81227,0.05577 -21.62496,0.05465 -32.437389,0.0229 -1.253678,-0.0037 -2.046822,0.191261 -2.109909,1.66613 -0.03256,0.761398 -0.39135,1.508834 -0.602753,2.262581 -0.359291,-1.547905 0.351112,-2.893494 0.859512,-4.260754 0.135788,-0.3652 0.666725,-0.268467 1.041085,-0.268509 11.336634,-0.0014 22.673264,4.58e-4 34.009894,-0.0038 0.95989,-3.66e-4 1.36778,0.240631 1.05826,1.359215 -1.25234,4.525997 -2.41419,9.077045 -3.6078,13.619278 -1.56376,5.950721 -3.1243,11.90229 -4.68945,17.852646 -1.04868,3.986847 -2.10297,7.972221 -3.24034,12.282646 1.96554,-0.717507 3.65638,-1.321373 5.33738,-1.951508 2.55571,-0.95803 5.09973,-1.94751 7.66153,-2.888725 0.3934,-0.144531 0.84501,-0.561363 1.28804,-0.04334 z"
                 class="st5" />
            </g>
          </g>
        </g>
      </g>
    </g>
  </g>
  <style
     id="style3"
     type="text/css">
	.st0{fill:#3D3E3C;}
	.st1{fill:#FFFFFF;}
	.st2{fill:#3E3F3D;}
	.st3{fill:#B6B7B9;}
	.st4{fill:#3A3C3D;}
	.st5{fill:#3B3D3E;}
</style>
</svg>
