<?xml version="1.0" encoding="UTF-8" standalone="no"?>
<svg
   xmlns:dc="http://purl.org/dc/elements/1.1/"
   xmlns:cc="http://creativecommons.org/ns#"
   xmlns:rdf="http://www.w3.org/1999/02/22-rdf-syntax-ns#"
   xmlns:svg="http://www.w3.org/2000/svg"
   xmlns="http://www.w3.org/2000/svg"
   height="497.47784"
   width="500"
   xml:space="preserve"
   viewBox="0 0 500 497.47783"
   y="0px"
   x="0px"
   id="レイヤー_1"
   version="1.1"><metadata
     id="metadata42"><rdf:RDF><cc:Work
         rdf:about=""><dc:format>image/svg+xml</dc:format><dc:type
           rdf:resource="http://purl.org/dc/dcmitype/StillImage" /><dc:title></dc:title></cc:Work></rdf:RDF></metadata><defs
     id="defs40" /><style
     id="style3"
     type="text/css">
	.st0{fill:#3D3E3C;}
	.st1{fill:#FFFFFF;}
	.st2{fill:#3E3F3D;}
	.st3{fill:#B6B7B9;}
	.st4{fill:#3A3C3D;}
	.st5{fill:#3B3D3E;}
</style><g
     id="layer1"><path
       class="st0"
       d="M 249.93451,497.47785 C 111.55389,497.4749 -0.04256008,386.13641 1.34959e-5,248.12117 0.04235908,110.84494 112.16774,-0.05872485 250.85447,2.3348056e-5 388.71607,0.05842233 500.11646,111.76509 499.99991,249.83047 499.88469,386.41965 387.73912,497.48074 249.93451,497.47785 Z"
       id="path10"
       style="fill:#3d3e3c" /><path
       class="st1"
       d="M 465.62866,210.09581 C 458.66312,169.07193 440.88469,132.76115 412.31874,102.49043 356.15073,42.970332 287.0328,20.494388 206.76296,35.178406 154.6556,44.710666 112.02863,71.64354 78.694851,112.84012 56.190669,140.65246 41.541269,172.24699 34.872503,207.46529 l 0,0 c -5.3216,26.56985 -5.532437,53.24693 -0.579975,79.82085 9.948097,53.3792 36.31145,97.14385 78.424962,131.37339 11.16643,9.07595 23.10018,17.05374 36.10794,23.32322 0.42548,0.28796 0.82503,0.62737 1.2801,0.85652 45.49399,22.91162 93.3896,29.46866 143.20462,19.5739 51.85907,-10.30067 94.82257,-36.27086 127.76822,-77.62424 40.92858,-51.37383 55.52693,-110.04582 44.55029,-174.69312 z"
       id="path12"
       style="fill:#ffffff" /></g><g
     style="opacity:0.7"
     id="layer4"><path
       class="st3"
       d="m 320.22477,372.1255 c 14.33279,-0.028 28.66599,-0.11611 42.998,-0.0258 2.42369,0.0156 3.42635,-0.64276 3.98888,-3.07555 1.19564,-5.17124 2.80866,-10.24593 4.25062,-15.36032 9.67186,-3.61788 19.34371,-7.23564 29.01556,-10.85344 0.15748,0.2679 0.31481,0.53573 0.47216,0.80359 -19.97542,30.98086 -46.85527,54.0337 -80.88148,68.38637 -39.95025,16.8516 -80.85994,18.60728 -122.51463,5.75008 6.32191,-2.35391 12.63695,-4.72655 18.9669,-7.05867 33.9328,-12.50153 67.86994,-24.99109 101.79932,-37.50192 0.67406,-0.24854 1.27147,-0.70484 1.90467,-1.06425 z"
       id="path16"
       style="fill:#b6b7b9" /><path
       class="st3"
       d="m 259.80337,96.428057 c -17.59481,0.02683 -35.19007,0.122271 -52.78397,0.0091 -2.74895,-0.01757 -3.70717,0.835249 -4.31817,3.453157 -1.56277,6.696206 -3.51627,13.301236 -5.31351,19.942736 -0.62834,-0.92184 -1.29454,-0.26212 -1.92909,-0.028 -31.47343,11.61423 -62.94516,23.23307 -94.41437,34.85871 -0.68866,0.2544 -1.343013,0.61397 -2.504464,0.15628 21.546764,-33.80348 50.869754,-57.997817 88.221784,-72.05476 38.42055,-14.45907 77.43003,-15.287871 116.74152,-2.830909 -11.58904,4.267745 -23.19252,8.497098 -34.75741,12.829382 -3.01274,1.128598 -6.21692,1.823887 -8.94232,3.664275 z"
       id="path18"
       style="fill:#b6b7b9" /><path
       class="st3"
       d="m 268.69878,263.5921 c 0.23026,-4.78027 2.77322,-7.09786 7.37477,-8.54641 8.76671,-2.75979 17.28327,-6.3081 25.94079,-9.42604 1.83942,-0.66247 2.82031,-1.55131 3.34551,-3.58399 3.36794,-13.03439 6.92993,-26.01862 10.42815,-39.01943 2.57528,-0.14414 4.79789,-1.43714 7.13508,-2.29407 27.94139,-10.2445 55.86899,-20.52725 83.75715,-30.91549 2.13435,-0.79499 3.02317,-0.64327 4.04042,1.48675 5.03113,10.5345 8.9174,21.47264 12.15718,32.67038 0.69132,2.38953 -0.66158,2.88341 -2.32956,3.49735 -14.2593,5.24835 -28.5077,10.5264 -42.76418,15.78259 -35.98501,13.26721 -71.97265,26.5273 -107.95711,39.79608 -0.39084,0.14414 -0.75278,0.36648 -1.1282,0.55228 z"
       id="path20"
       style="fill:#b6b7b9" /><path
       class="st3"
       d="m 184.84939,166.52622 c -2.63704,10.24421 -5.24618,20.49573 -7.92198,30.72982 -1.5052,5.75686 -3.12044,11.48497 -4.68614,17.22611 -1.06934,-0.8813 -1.98599,0.002 -2.88243,0.33176 -30.59923,11.26762 -61.19566,22.54293 -91.771621,33.87357 -6.570235,2.43475 -6.627026,2.52801 -6.230465,-3.97934 0.745367,-12.23121 1.770472,-24.42733 4.799204,-36.37082 0.39096,-1.54171 0.962111,-2.29962 2.409181,-2.83125 29.919051,-10.99132 59.819001,-22.03467 89.730521,-33.04654 5.50052,-2.02501 11.03495,-3.95792 16.55373,-5.93331 z"
       id="path22"
       style="fill:#b6b7b9" /><path
       class="st3"
       d="m 383.95737,306.42317 c 0.75792,-3.03736 1.37628,-6.11883 2.31652,-9.09867 0.79992,-2.53482 0.68703,-3.50985 -2.52142,-3.48861 -22.85089,0.15126 -45.70327,0.087 -68.55516,0.075 -4.18834,-0.002 -8.37656,-0.0781 -12.56488,-0.12011 10.38093,-3.90592 20.7443,-7.85961 31.14627,-11.70874 30.55857,-11.30786 61.13438,-22.56929 91.69787,-33.86401 3.21767,-1.18912 3.30357,-1.23201 3.18306,2.22124 -0.44958,12.88086 -1.74318,25.65607 -4.54637,38.27271 -0.61008,2.74588 -2.23484,3.66364 -4.49834,4.49293 -11.90236,4.36099 -23.77474,8.80388 -35.65755,13.21827 z"
       id="path24"
       style="fill:#b6b7b9" /><path
       class="st3"
       d="m 293.85209,168.99429 c 4.20777,-15.98511 8.41553,-31.97021 12.62335,-47.95533 6.28574,-1.31759 12.04708,-4.15853 18.05832,-6.26879 8.89621,-3.12305 17.728,-6.43449 26.53719,-9.79679 1.93474,-0.73848 3.22469,-0.36375 4.82699,0.83344 10.4513,7.80888 20.12019,16.44954 28.69755,26.29688 2.1841,2.50752 2.19082,2.48223 -1.14137,3.71483 -29.87068,11.0495 -59.73549,22.11497 -89.60203,33.17576 z"
       id="path26"
       style="fill:#b6b7b9" /><path
       class="st3"
       d="m 129.80149,272.3301 c -1.88028,9.31378 -4.83397,18.35041 -7.12362,27.55898 -0.88169,3.54593 -1.93822,7.04828 -2.83367,10.59106 -0.16453,0.65092 -1.07886,1.31375 -0.39694,1.96465 0.66561,0.6354 1.56051,0.26812 2.36237,-0.0327 6.7479,-2.53094 13.49852,-5.05473 20.2528,-7.56855 2.11127,-0.78576 4.23627,-1.53467 6.94981,-2.5154 -0.78835,2.82443 -1.41588,5.07271 -2.04342,7.32099 -0.36673,-1.6948 -1.48692,-0.73926 -2.17206,-0.48744 -16.43301,6.03937 -32.85769,12.10182 -49.261651,18.21967 -4.799857,1.79015 -4.810725,1.89367 -7.038987,-2.78377 -4.655976,-9.77366 -8.402311,-19.87937 -11.164696,-30.35947 -0.499799,-1.89617 -0.346098,-2.83235 1.625105,-3.55109 15.955872,-5.81773 31.878639,-11.72611 47.819889,-17.58405 0.97181,-0.35709 2.01505,-0.51978 3.02507,-0.77293 z"
       id="path28"
       style="fill:#b6b7b9" /><path
       class="st3"
       d="m 134.81996,355.5573 c -1.17808,4.55139 -2.23951,9.13757 -3.58127,13.64025 -0.71822,2.41012 -0.15099,2.90846 2.30845,2.8985 23.49042,-0.0956 46.98137,-0.063 70.47217,-0.0627 0.52095,4e-5 1.04189,0.0525 1.56284,0.0805 -18.85856,6.96033 -37.71978,13.91351 -56.57018,20.89586 -1.36624,0.5061 -2.51343,0.63796 -3.81681,-0.30273 -11.61528,-8.38314 -22.04842,-18.02826 -31.67908,-29.34809 7.28595,-2.66819 14.29493,-5.23489 21.30388,-7.8016 z"
       id="path30"
       style="fill:#b6b7b9" /></g><g
     style="opacity:1"
     id="layer2"><path
       id="rect4276"
       d="M 500,14.581427 67.90933,248.73893 l 130.02391,0 L 0,482.89643 l 432.08748,-234.1575 -130.02071,0 L 500,14.581427 Z"
       style="opacity:0.5;fill:#f7f700;fill-opacity:1" /></g><g
     id="layer3"><path
       class="st2"
       d="m 259.80337,96.428057 c 17.57826,0 35.15652,0 52.97683,0 -2.1642,8.447833 -4.23449,16.529363 -6.3048,24.610893 0.55701,1.26369 0.0738,2.47731 -0.23069,3.67489 -3.47884,13.67848 -7.2559,27.27921 -10.69017,40.96913 -0.31761,1.2661 -1.02056,2.26727 -1.70245,3.31132 -1.69736,6.22323 -3.39468,12.44646 -5.26456,19.30228 11.66118,-4.38163 22.75135,-8.54873 34.23132,-12.86228 -2.40154,9.42119 -4.71617,18.5015 -7.03081,27.58182 0.43023,1.27481 0.052,2.49811 -0.27145,3.71133 -3.1385,11.7671 -6.23029,23.54661 -9.27935,35.33696 -0.62653,2.42271 -2.10557,3.66535 -4.34902,4.48731 -8.77319,3.21435 -17.55128,6.41617 -26.31321,9.66175 -2.67575,0.99114 -5.07793,2.0129 -5.57489,5.25061 -0.1279,0.83336 -1.04303,1.30588 -1.30134,2.12803 -2.51945,9.38839 -5.03285,18.77838 -7.56478,28.16338 -0.38427,1.42437 -0.43436,2.24828 1.57438,2.22788 13.30725,-0.13501 26.61583,-0.14324 39.92398,-0.19262 2.86124,-0.69353 5.7546,-0.99158 8.70746,-0.98771 23.40697,0.0307 46.814,0.0111 70.22104,0.02 6.48916,0.002 6.84145,0.46774 5.09624,6.6196 -0.683,2.4076 -1.01089,4.95884 -2.69973,6.97984 -4.40154,15.68422 -8.70367,31.39481 -12.4951,47.24045 0.43121,0.91914 0.28011,1.86058 0.02,2.76795 -1.18641,4.13053 -2.14236,8.32049 -3.24729,12.47206 -0.71176,2.6743 -2.23494,4.07051 -5.13312,4.06867 -13.30798,-0.009 -26.61598,0.02 -39.92394,-0.0294 -1.04134,-0.004 -2.11257,-0.0271 -2.95266,-0.81753 -22.36167,-0.0267 -44.72334,-0.0685 -67.08499,-0.0745 -15.85254,-0.004 -31.70508,0.0403 -47.55763,0.063 -4.44305,0.97895 -8.95221,0.89413 -13.46355,0.88877 -18.17614,-0.0222 -36.35237,-0.009 -54.52857,-0.009 -1.15569,-7e-5 -2.31221,0.0258 -3.46683,-0.0231 -3.86285,-0.16393 -4.50233,-0.85445 -3.49838,-4.64532 1.14639,-4.32891 1.49013,-8.94452 4.19514,-12.76747 4.04961,-15.30273 8.09923,-30.60537 12.14884,-45.90806 0.63544,-0.91447 -0.0995,-1.81919 -0.0234,-2.74949 0.2424,-2.96062 0.18075,-2.99935 -2.76354,-1.92144 -6.60764,2.41907 -13.17379,4.95041 -19.79375,7.33685 -0.98806,0.35618 -1.94985,0.81241 -3.00109,0.93375 -1.84659,0.21309 -2.99189,-0.47076 -2.44962,-2.48486 3.35778,-12.47141 6.41297,-25.02546 10.16876,-37.38832 0.12198,-0.40154 0.46122,-0.69771 0.6953,-1.04561 2.80705,-8.23577 4.67115,-16.73502 6.93433,-25.12099 0.60718,-2.24984 1.59819,-3.47344 3.83979,-4.24895 8.21554,-2.84218 16.33276,-5.96762 24.5364,-8.8457 1.70115,-0.59681 2.49765,-1.45239 2.90998,-3.19313 1.3037,-5.50402 2.79843,-10.9628 4.21926,-16.43907 -0.3384,-2.34195 0.38745,-4.53536 0.97725,-6.73803 3.40596,-12.72027 6.78102,-25.44876 10.17395,-38.17249 0.29411,-1.10295 0.46231,-2.27415 1.45693,-3.04552 3.10926,-11.40713 6.23379,-22.81012 9.31969,-34.22357 1.12034,-4.1437 2.14845,-8.31234 3.21865,-12.4696 -0.31154,-2.01087 0.0315,-3.94959 0.61057,-5.87165 1.27138,-4.22019 2.24528,-8.52084 3.44174,-12.7626 1.54371,-5.472927 1.74944,-5.691885 7.5981,-5.695729 14.58397,-0.0096 29.16791,-0.0031 43.75188,-0.0029 1.25901,2.4e-5 2.5192,-0.03354 3.77668,0.02391 1.1417,0.05216 2.33405,-0.02547 3.23668,0.90391 z"
       id="path14"
       style="fill:#3e3f3d" /><path
       class="st1"
       d="m 152.57696,254.03776 c 8.55024,-3.10182 17.08097,-6.25936 25.66683,-9.25917 1.75713,-0.61394 1.67537,-2.03782 1.99322,-3.23161 7.03197,-26.40815 14.0175,-52.82864 20.99482,-79.25131 3.74048,-14.1649 7.44916,-28.33822 11.17218,-42.50776 -0.25804,-2.77875 0.92487,-5.2513 1.68292,-7.8094 0.45059,-1.52057 1.72212,-1.63455 3.04604,-1.63363 3.15075,0.002 6.30149,-6.5e-4 9.45224,-7.8e-4 20.68996,-9.1e-4 41.37994,-5e-4 62.0699,-3.8e-4 0.84019,10e-6 1.6809,-0.0187 2.52049,0.007 2.95235,0.0898 3.35092,0.48229 2.56316,3.401 -1.20005,4.4461 -2.37845,8.89844 -3.54284,13.35325 -6.98992,26.74223 -14.20245,53.42602 -21.05234,80.20492 -0.22582,0.88288 -0.97086,1.86198 -0.19752,2.67414 0.95572,1.00366 1.94672,-0.005 2.85848,-0.33816 8.66817,-3.16803 17.29296,-6.45196 25.91104,-9.75379 0.97065,-0.3719 1.93726,-0.84111 3.03432,-0.70198 1.05208,0.43736 0.52213,1.20253 0.35182,1.85182 -2.68289,10.22778 -5.41534,20.44279 -8.03558,30.68652 -0.43209,1.68935 -1.49817,2.28567 -2.93275,2.80807 -9.83267,3.58088 -19.63095,7.25724 -29.48589,10.77523 -1.88936,0.67449 -2.80983,1.70106 -3.31251,3.62287 -4.95417,18.94024 -9.94876,37.87031 -15.06086,56.76835 -0.70769,2.61617 0.10477,2.87592 2.42016,2.87234 39.89273,-0.0616 79.78562,-0.0445 119.67846,-0.044 3.70105,2e-5 3.68484,-0.002 2.71617,3.70604 -3.17314,12.14841 -6.33341,24.30019 -9.49863,36.45065 0.22557,2.80832 -1.22909,5.24391 -1.76989,7.88381 -0.21376,1.0431 -1.07333,1.48503 -2.12804,1.52658 -1.04999,0.0412 -2.09996,0.0316 -3.14997,0.0316 -65.42538,0.001 -130.8508,0.001 -196.27618,9.8e-4 -0.21006,0 -0.42008,3.3e-4 -0.6301,-1.8e-4 -4.68372,-0.0111 -4.74906,-0.0287 -3.59048,-4.4821 5.96295,-22.92027 12.04405,-45.8095 18.119,-68.70034 0.38894,-1.46561 1.59425,-3.29565 0.34052,-4.40232 -1.05378,-0.93023 -2.71203,0.396 -4.04455,0.89093 -6.68504,2.48297 -13.3487,5.02393 -20.04463,7.47687 -1.12213,0.41108 -2.371,1.51501 -3.53282,0.57873 -1.28265,-1.03378 -0.0431,-2.31513 0.22631,-3.43492 2.32741,-9.67332 5.02079,-19.2508 7.58915,-28.86132 0.58527,-2.19001 1.5744,-3.34205 3.87826,-3.15837 z"
       id="path32"
       style="fill:#ffffff" /><path
       class="st4"
       d="m 152.57696,254.03776 c -2.24732,0.62172 -3.18428,2.1624 -3.75136,4.40152 -2.59463,10.24521 -5.37549,20.44323 -8.26536,31.32018 10.0599,-3.73704 19.69698,-7.31709 29.80358,-11.07151 -6.95867,26.36359 -13.84144,52.43964 -20.80322,78.81486 1.47716,0 2.71131,0 3.94545,0 65.98707,0 131.97417,-0.02 197.9611,0.0727 2.79346,0.004 4.23678,-0.58497 4.63365,-3.46579 0.25357,-1.84078 0.97687,-3.61681 1.48954,-5.42192 1.33579,3.5123 -1.3106,6.34762 -1.68453,9.57443 -0.0249,0.2142 -0.88742,0.42451 -1.37612,0.47115 -0.83286,0.0794 -1.67826,0.0305 -2.51843,0.0305 -66.5844,4e-4 -133.16881,4.6e-4 -199.75325,9e-5 -4.22979,-3e-5 -4.14597,0.02 -3.10369,-3.92594 4.5334,-17.16456 8.99742,-34.34738 13.52179,-51.51434 1.70395,-6.46533 3.48822,-12.90971 5.27553,-19.35267 0.25477,-0.91844 0.81313,-2.00705 0.1382,-2.66994 -0.69419,-0.68183 -1.73104,0.0394 -2.57897,0.35842 -7.63799,2.87343 -15.26919,5.76503 -22.91648,8.61341 -0.92909,0.34606 -2.02672,1.2571 -2.88762,0.50797 -0.94362,-0.82111 0.0173,-1.95389 0.27084,-2.92269 2.51128,-9.59601 5.03623,-19.18843 7.57674,-28.77674 0.32103,-1.21159 0.71141,-2.40917 1.14441,-3.58572 0.71755,-1.94982 1.97571,-2.59459 3.87821,-1.45787 z"
       id="path34"
       style="fill:#3a3c3d" /><path
       class="st5"
       d="m 300.74999,199.1899 c -11.00977,4.22201 -22.01955,8.444 -33.52107,12.85457 2.72698,-10.37537 5.31451,-20.26514 7.92638,-30.14847 5.96747,-22.581 11.90675,-45.16969 17.97413,-67.72387 0.72562,-2.69724 0.19529,-3.188 -2.54029,-3.17389 -24.05,0.12405 -48.10094,0.12156 -72.15129,0.0509 -2.78859,-0.008 -4.5528,0.42542 -4.69313,3.70601 -0.0724,1.6936 -0.87049,3.35614 -1.34071,5.03272 -0.79918,-3.44305 0.78098,-6.43607 1.91183,-9.4773 0.30204,-0.81233 1.48301,-0.59716 2.31571,-0.59725 25.21636,-0.003 50.4327,0.001 75.64905,-0.008 2.13511,-8.1e-4 3.04239,0.53524 2.35392,3.02334 -2.78562,10.06729 -5.36995,20.19029 -8.02492,30.2937 -3.47831,13.23633 -6.94946,26.47455 -10.43086,39.71008 -2.33261,8.86804 -4.67769,17.73281 -7.20757,27.32059 4.372,-1.59597 8.13297,-2.93916 11.87206,-4.34078 5.68473,-2.13097 11.34346,-4.3319 17.04174,-6.42547 0.87505,-0.32148 1.87957,-1.24865 2.86502,-0.0964 z"
       id="path36"
       style="fill:#3b3d3e" /></g></svg>